<svg width="230" height="75" viewBox="0 0 230 75" fill="none" xmlns="http://www.w3.org/2000/svg">
<path d="M222.582 43.8612C210.892 41.8428 198.641 41.9774 186.952 41.7083C162.843 41.3011 138.739 42.7844 114.793 46.1487C114.168 46.2355 113.583 46.5551 113.119 47.0622C112.655 47.5693 112.336 48.2383 112.207 48.9744C111.991 49.3867 111.838 49.8426 111.758 50.32C110.634 57.9898 109.847 68.4854 116.366 73.0604C120.188 75.7516 125.133 74.9442 129.292 74.6751L149.299 73.7332C175.262 72.5222 201.226 71.4457 227.19 70.2347C227.56 70.239 227.927 70.155 228.27 69.9875C228.612 69.82 228.923 69.5724 229.185 69.2591C229.447 68.9459 229.653 68.5733 229.793 68.1632C229.933 67.7531 230.004 67.3137 230 66.8707C229.55 58.9318 231.349 45.4759 222.582 43.8612Z" fill="#5F27CD"/>
<path d="M87.34 35.324C84.124 35.324 81.628 34.556 79.852 33.02C78.1 31.46 77.164 29.348 77.044 26.684H82.048C82.144 28.076 82.648 29.132 83.56 29.852C84.496 30.572 85.756 30.932 87.34 30.932C90.748 30.932 92.452 29.9 92.452 27.836C92.452 26.996 92.176 26.336 91.624 25.856C91.072 25.376 90.196 25.004 88.996 24.74L85.324 23.948C82.924 23.444 81.076 22.628 79.78 21.5C78.508 20.372 77.872 18.74 77.872 16.604C77.872 14.468 78.724 12.752 80.428 11.456C82.156 10.136 84.472 9.476 87.376 9.476C90.208 9.476 92.524 10.22 94.324 11.708C96.148 13.196 97.072 15.116 97.096 17.468H92.092C92.02 16.412 91.588 15.56 90.796 14.912C90.004 14.24 88.84 13.904 87.304 13.904C85.864 13.904 84.772 14.156 84.028 14.66C83.308 15.14 82.948 15.788 82.948 16.604C82.948 17.276 83.188 17.84 83.668 18.296C84.172 18.752 85.012 19.112 86.188 19.376L89.608 20.096C92.128 20.624 94.072 21.488 95.44 22.688C96.832 23.864 97.528 25.544 97.528 27.728C97.528 30.08 96.676 31.94 94.972 33.308C93.292 34.652 90.748 35.324 87.34 35.324ZM100.942 35V8.36H105.766V18.404H105.91C107.134 16.772 108.898 15.956 111.202 15.956C113.29 15.956 114.946 16.568 116.17 17.792C117.418 18.992 118.042 20.636 118.042 22.724V35H113.218V24.092C113.218 21.596 112.054 20.348 109.726 20.348C108.574 20.348 107.626 20.744 106.882 21.536C106.138 22.304 105.766 23.348 105.766 24.668V35H100.942ZM133.806 16.28H138.63V27.728C138.63 29.888 137.922 31.7 136.506 33.164C135.09 34.604 133.038 35.324 130.35 35.324H130.314C127.626 35.324 125.574 34.604 124.158 33.164C122.742 31.7 122.034 29.888 122.034 27.728V16.28H126.858V26.972C126.858 29.54 128.022 30.824 130.35 30.824C132.654 30.824 133.806 29.54 133.806 26.972V16.28ZM144.862 35V20.348H141.586V16.28H144.862V14.696C144.862 12.632 145.534 11 146.878 9.8C148.222 8.6 149.938 8 152.026 8C152.818 8 153.586 8.084 154.33 8.252V12.32C153.682 12.2 153.082 12.14 152.53 12.14C150.634 12.14 149.686 12.992 149.686 14.696V16.28H154.15V20.348H149.686V35H144.862ZM159.698 35V20.348H156.422V16.28H159.698V14.696C159.698 12.632 160.37 11 161.714 9.8C163.058 8.6 164.774 8 166.862 8C167.654 8 168.422 8.084 169.166 8.252V12.32C168.518 12.2 167.918 12.14 167.366 12.14C165.47 12.14 164.522 12.992 164.522 14.696V16.28H168.986V20.348H164.522V35H159.698ZM172.626 35V8.36H177.45V35H172.626ZM189.512 35.324C186.704 35.324 184.496 34.424 182.888 32.624C181.28 30.8 180.476 28.484 180.476 25.676C180.476 22.868 181.244 20.552 182.78 18.728C184.34 16.88 186.56 15.956 189.44 15.956C192.152 15.956 194.276 16.82 195.812 18.548C197.372 20.276 198.152 22.46 198.152 25.1V26.972H185.408C185.432 28.316 185.78 29.384 186.452 30.176C187.148 30.944 188.168 31.328 189.512 31.328C191.504 31.328 192.728 30.608 193.184 29.168H197.9C197.636 30.944 196.748 32.42 195.236 33.596C193.748 34.748 191.84 35.324 189.512 35.324ZM185.444 23.768H193.22C193.172 22.64 192.824 21.728 192.176 21.032C191.552 20.336 190.64 19.988 189.44 19.988C188.144 19.988 187.16 20.336 186.488 21.032C185.84 21.728 185.492 22.64 185.444 23.768Z" fill="#0D172A"/>
<path d="M25.7817 32.67L7.02439 43.4985V18.9417L25.7817 8.11098L51.5634 22.9961V14.8851L25.7817 0L0 14.8851V55.6661L25.7817 40.781L37.5168 47.5573V39.4464L25.7817 32.67Z" fill="#5F27CD"/>
<path d="M25.7817 16.3336L14.0312 23.1188V31.2297L25.7817 24.4446L44.539 35.2754V59.8344L25.7817 49.0037L14.0312 55.7866L8.10878 59.2022L0.00439024 63.8822L0 71.9998L25.7817 57.1146L51.5634 71.9998V31.2188L25.7817 16.3336Z" fill="#5F27CD"/>
<path d="M78.928 68V57.416H76.744V55.736H78.928V53.6C78.928 52.528 79.248 51.664 79.888 51.008C80.544 50.336 81.416 50 82.504 50C83.032 50 83.544 50.056 84.04 50.168V51.848C83.64 51.768 83.24 51.728 82.84 51.728C82.232 51.728 81.76 51.896 81.424 52.232C81.104 52.552 80.944 53.008 80.944 53.6V55.736H83.92V57.416H80.944V68H78.928ZM91.3924 68.216C89.5524 68.216 88.1684 67.632 87.2404 66.464C86.3124 65.28 85.8484 63.752 85.8484 61.88C85.8484 60.008 86.3204 58.48 87.2644 57.296C88.2084 56.112 89.5844 55.52 91.3924 55.52C93.2004 55.52 94.5764 56.112 95.5204 57.296C96.4644 58.48 96.9364 60.008 96.9364 61.88C96.9364 63.752 96.4644 65.28 95.5204 66.464C94.5924 67.632 93.2164 68.216 91.3924 68.216ZM91.3924 66.416C92.5924 66.416 93.4724 66.008 94.0324 65.192C94.6084 64.376 94.8964 63.272 94.8964 61.88C94.8964 60.488 94.6084 59.384 94.0324 58.568C93.4724 57.736 92.5924 57.32 91.3924 57.32C90.2084 57.32 89.3284 57.736 88.7524 58.568C88.1764 59.384 87.8884 60.488 87.8884 61.88C87.8884 63.272 88.1764 64.376 88.7524 65.192C89.3284 66.008 90.2084 66.416 91.3924 66.416ZM100.285 68V55.736H102.037L102.205 57.8H102.301C102.557 57.112 102.973 56.576 103.549 56.192C104.125 55.792 104.789 55.592 105.541 55.592H106.645V57.536H105.685C103.429 57.536 102.301 59.04 102.301 62.048V68H100.285Z" fill="#0D172A"/>
<path d="M116.24 68V51.2H123.896C125.4 51.2 126.608 51.592 127.52 52.376C128.432 53.144 128.888 54.208 128.888 55.568C128.888 57.152 128.304 58.296 127.136 59V59.096C128.72 59.832 129.512 61.184 129.512 63.152C129.512 64.672 129.032 65.864 128.072 66.728C127.128 67.576 125.824 68 124.16 68H116.24ZM119.504 57.896H123.368C124.088 57.896 124.632 57.728 125 57.392C125.368 57.04 125.552 56.56 125.552 55.952C125.552 54.72 124.848 54.104 123.44 54.104H119.504V57.896ZM119.504 65.072H123.656C124.488 65.072 125.112 64.88 125.528 64.496C125.944 64.096 126.152 63.56 126.152 62.888C126.152 62.264 125.944 61.752 125.528 61.352C125.112 60.936 124.488 60.728 123.656 60.728H119.504V65.072ZM137.168 68.216C135.216 68.216 133.712 67.624 132.656 66.44C131.616 65.256 131.096 63.704 131.096 61.784C131.096 59.864 131.624 58.304 132.68 57.104C133.736 55.904 135.232 55.304 137.168 55.304C139.088 55.304 140.576 55.904 141.632 57.104C142.688 58.304 143.216 59.864 143.216 61.784C143.216 63.688 142.688 65.24 141.632 66.44C140.592 67.624 139.104 68.216 137.168 68.216ZM134.384 61.784C134.384 64.184 135.312 65.384 137.168 65.384C139.024 65.384 139.952 64.184 139.952 61.784C139.952 59.352 139.024 58.136 137.168 58.136C135.312 58.136 134.384 59.352 134.384 61.784ZM150.832 68.216C148.88 68.216 147.376 67.624 146.32 66.44C145.28 65.256 144.76 63.704 144.76 61.784C144.76 59.864 145.288 58.304 146.344 57.104C147.4 55.904 148.896 55.304 150.832 55.304C152.752 55.304 154.24 55.904 155.296 57.104C156.352 58.304 156.88 59.864 156.88 61.784C156.88 63.688 156.352 65.24 155.296 66.44C154.256 67.624 152.768 68.216 150.832 68.216ZM148.048 61.784C148.048 64.184 148.976 65.384 150.832 65.384C152.688 65.384 153.616 64.184 153.616 61.784C153.616 59.352 152.688 58.136 150.832 58.136C148.976 58.136 148.048 59.352 148.048 61.784ZM164.232 68.216C162.904 68.216 161.92 67.88 161.28 67.208C160.64 66.52 160.32 65.592 160.32 64.424V58.256H158.28V55.52H160.44V52.904L163.296 52.232H163.536V55.52H166.536V58.256H163.536V63.728C163.536 64.32 163.664 64.752 163.92 65.024C164.176 65.28 164.584 65.408 165.144 65.408C165.56 65.408 165.96 65.344 166.344 65.216H166.584V67.904C165.912 68.112 165.128 68.216 164.232 68.216ZM173.856 68.216C172.096 68.216 170.76 67.824 169.848 67.04C168.936 66.24 168.464 65.16 168.432 63.8H171.648C171.648 64.296 171.84 64.704 172.224 65.024C172.608 65.344 173.152 65.504 173.856 65.504C174.528 65.504 175.04 65.4 175.392 65.192C175.744 64.968 175.92 64.688 175.92 64.352C175.92 63.744 175.44 63.344 174.48 63.152L172.464 62.768C170.032 62.304 168.816 61.04 168.816 58.976C168.816 57.92 169.256 57.048 170.136 56.36C171.032 55.656 172.248 55.304 173.784 55.304C175.32 55.304 176.552 55.696 177.48 56.48C178.408 57.248 178.872 58.24 178.872 59.456H175.704C175.704 58.992 175.528 58.616 175.176 58.328C174.84 58.024 174.36 57.872 173.736 57.872C173.192 57.872 172.76 57.976 172.44 58.184C172.12 58.392 171.96 58.664 171.96 59C171.96 59.576 172.384 59.952 173.232 60.128L175.512 60.536C176.648 60.76 177.536 61.16 178.176 61.736C178.832 62.312 179.16 63.176 179.16 64.328C179.16 65.544 178.664 66.496 177.672 67.184C176.68 67.872 175.408 68.216 173.856 68.216ZM186.498 68.216C185.17 68.216 184.186 67.88 183.546 67.208C182.906 66.52 182.586 65.592 182.586 64.424V58.256H180.546V55.52H182.706V52.904L185.562 52.232H185.802V55.52H188.802V58.256H185.802V63.728C185.802 64.32 185.93 64.752 186.186 65.024C186.442 65.28 186.85 65.408 187.41 65.408C187.826 65.408 188.226 65.344 188.61 65.216H188.85V67.904C188.178 68.112 187.394 68.216 186.498 68.216ZM191.394 68V55.52H194.106L194.346 57.416H194.442C195.098 56.024 196.178 55.328 197.682 55.328H198.594V58.304H197.466C196.506 58.304 195.762 58.616 195.234 59.24C194.706 59.864 194.442 60.744 194.442 61.88V68H191.394ZM204.136 68.216C202.776 68.216 201.704 67.856 200.92 67.136C200.152 66.4 199.768 65.464 199.768 64.328C199.768 63.144 200.184 62.208 201.016 61.52C201.864 60.816 203.128 60.464 204.808 60.464C205.896 60.464 206.824 60.592 207.592 60.848V59.768C207.592 59.224 207.416 58.784 207.064 58.448C206.712 58.112 206.168 57.944 205.432 57.944C204.776 57.944 204.264 58.096 203.896 58.4C203.528 58.704 203.344 59.088 203.344 59.552H200.32C200.32 58.32 200.768 57.304 201.664 56.504C202.576 55.704 203.856 55.304 205.504 55.304C207.152 55.304 208.448 55.72 209.392 56.552C210.336 57.368 210.808 58.432 210.808 59.744V68H207.952L207.712 66.704H207.616C206.848 67.712 205.688 68.216 204.136 68.216ZM204.904 65.672C205.72 65.672 206.368 65.448 206.848 65C207.344 64.552 207.592 64.008 207.592 63.368V63.104C206.888 62.832 206.064 62.696 205.12 62.696C204.432 62.696 203.896 62.832 203.512 63.104C203.144 63.376 202.96 63.736 202.96 64.184C202.96 64.632 203.128 64.992 203.464 65.264C203.8 65.536 204.28 65.672 204.904 65.672ZM213.495 73.496V55.52H216.375L216.711 56.864H216.807C217.607 55.824 218.759 55.304 220.263 55.304C221.815 55.304 223.055 55.904 223.983 57.104C224.911 58.288 225.375 59.848 225.375 61.784C225.375 63.672 224.919 65.216 224.007 66.416C223.095 67.616 221.847 68.216 220.263 68.216C218.759 68.216 217.607 67.696 216.807 66.656H216.711V73.496H213.495ZM217.239 64.4C217.687 65.056 218.391 65.384 219.351 65.384C220.311 65.384 221.007 65.056 221.439 64.4C221.887 63.728 222.111 62.856 222.111 61.784C222.111 60.696 221.887 59.816 221.439 59.144C221.007 58.472 220.311 58.136 219.351 58.136C218.407 58.136 217.711 58.48 217.263 59.168C216.815 59.84 216.591 60.712 216.591 61.784C216.591 62.856 216.807 63.728 217.239 64.4Z" fill="white"/>
</svg>
